<svg width="38" height="38" viewBox="0 0 38 38" fill="none" xmlns="http://www.w3.org/2000/svg">
<g id="cookies">
<path id="Vector" d="M18.3469 1.26173C16.7066 1.03165 15.0367 1.32852 13.5672 2.10782L8.075 5.03946C6.61289 5.81876 5.43281 7.04337 4.70546 8.53516L1.98164 14.1461C1.25429 15.6379 1.01679 17.3301 1.30624 18.9629L2.38242 25.1082C2.67187 26.7484 3.46601 28.2477 4.66093 29.4055L9.13632 33.7399C10.3312 34.8977 11.8527 35.6399 13.493 35.8699L19.6531 36.7383C21.2934 36.9684 22.9633 36.6715 24.4328 35.8922L29.925 32.9606C31.3871 32.1813 32.5672 30.9566 33.2945 29.4574L36.0184 23.8539C36.7457 22.3621 36.9832 20.6699 36.6937 19.0371L35.6101 12.8918C35.3207 11.2516 34.5266 9.75235 33.3316 8.59454L28.8637 4.26758C27.6687 3.10977 26.1473 2.36758 24.507 2.13751L18.3469 1.26173ZM15.4375 10.6875C16.0674 10.6875 16.6715 10.9377 17.1169 11.3831C17.5623 11.8285 17.8125 12.4326 17.8125 13.0625C17.8125 13.6924 17.5623 14.2965 17.1169 14.7419C16.6715 15.1873 16.0674 15.4375 15.4375 15.4375C14.8076 15.4375 14.2035 15.1873 13.7581 14.7419C13.3127 14.2965 13.0625 13.6924 13.0625 13.0625C13.0625 12.4326 13.3127 11.8285 13.7581 11.3831C14.2035 10.9377 14.8076 10.6875 15.4375 10.6875ZM10.6875 24.9375C10.6875 24.3076 10.9377 23.7035 11.3831 23.2581C11.8285 22.8127 12.4326 22.5625 13.0625 22.5625C13.6924 22.5625 14.2965 22.8127 14.7419 23.2581C15.1873 23.7035 15.4375 24.3076 15.4375 24.9375C15.4375 25.5674 15.1873 26.1715 14.7419 26.6169C14.2965 27.0623 13.6924 27.3125 13.0625 27.3125C12.4326 27.3125 11.8285 27.0623 11.3831 26.6169C10.9377 26.1715 10.6875 25.5674 10.6875 24.9375ZM27.3125 20.1875C27.9424 20.1875 28.5465 20.4377 28.9919 20.8831C29.4373 21.3285 29.6875 21.9326 29.6875 22.5625C29.6875 23.1924 29.4373 23.7965 28.9919 24.2419C28.5465 24.6873 27.9424 24.9375 27.3125 24.9375C26.6826 24.9375 26.0785 24.6873 25.6331 24.2419C25.1877 23.7965 24.9375 23.1924 24.9375 22.5625C24.9375 21.9326 25.1877 21.3285 25.6331 20.8831C26.0785 20.4377 26.6826 20.1875 27.3125 20.1875Z" fill="white"/>
</g>
</svg>
