<svg xmlns="http://www.w3.org/2000/svg" xmlns:xlink="http://www.w3.org/1999/xlink" width="260" height="115" viewBox="0 0 260 115">
  <defs>
    <clipPath id="clip-path">
      <rect id="Rectangle_2" data-name="Rectangle 2" width="260" height="115" fill="#fff" stroke="#707070" stroke-width="1"/>
    </clipPath>
  </defs>
  <g id="Mask_Group_1" data-name="Mask Group 1" clip-path="url(#clip-path)">
    <g id="ddroidd-logo-rgb-yellow-v2" transform="translate(-1.654 28.118)">
      <g id="Group_3" data-name="Group 3">
        <g id="Group_2" data-name="Group 2">
          <g id="Group_1" data-name="Group 1">
            <path id="Path_1" data-name="Path 1" d="M236.092,53.134a17.051,17.051,0,0,1-5.438-.86A13.083,13.083,0,0,1,226.17,49.7a16.839,16.839,0,0,1-4.484-6.677,24.946,24.946,0,0,1-1.62-8.967,19.868,19.868,0,0,1,2.479-9.92,18.083,18.083,0,0,1,6.962-6.964,20.521,20.521,0,0,1,10.4-2.577,18.93,18.93,0,0,1,3.339.287c.668.1,1.335.285,1.909.381V.766a.45.45,0,0,1,.475-.477h12.879a.45.45,0,0,1,.475.477V51.7a.451.451,0,0,1-.475.477H246.774a.638.638,0,0,1-.477-.383l-.475-2.671a12.246,12.246,0,0,1-4.1,2.861A17.927,17.927,0,0,1,236.092,53.134Zm3.814-37.68a19.886,19.886,0,0,0-9.92,2.479,17.439,17.439,0,0,0-6.583,6.583,19.268,19.268,0,0,0-2.384,9.443,22.908,22.908,0,0,0,1.526,8.586,16.089,16.089,0,0,0,4.291,6.3,14.106,14.106,0,0,0,4.2,2.384,13.328,13.328,0,0,0,10.112-.285,11.733,11.733,0,0,0,4.387-3.34c.094-.191.285-.191.477-.191s.285.191.381.381l.572,3.244H257.84V1.239H245.915v14.6a.494.494,0,0,1-.191.381.569.569,0,0,1-.381.1c-.668-.191-1.432-.383-2.386-.573a15.8,15.8,0,0,0-3.052-.285Zm0,26.613a6.1,6.1,0,0,1-5.057-2.1,8.256,8.256,0,0,1-1.715-5.436c0-2.956.762-5.247,2.288-6.773a8.054,8.054,0,0,1,5.915-2.288,15.638,15.638,0,0,1,4.387.668.521.521,0,0,1,.285.475V35.2a7.628,7.628,0,0,1-1.524,5.057h0a5.959,5.959,0,0,1-4.58,1.811Zm1.432-15.741a7.049,7.049,0,0,0-5.247,2c-1.335,1.335-2,3.433-2,6.1a7.254,7.254,0,0,0,1.526,4.865A5.394,5.394,0,0,0,240,41.113a4.775,4.775,0,0,0,3.91-1.526h0a6.7,6.7,0,0,0,1.335-4.387V26.9a13.814,13.814,0,0,0-3.91-.573Z" transform="translate(1.781 2.671)" fill="none" stroke="#ffe000" stroke-width="1.781"/>
            <path id="Path_2" data-name="Path 2" d="M201.083,39.873a5.2,5.2,0,0,1-4.2,1.717,6.106,6.106,0,0,1-4.768-1.907,7.429,7.429,0,0,1-1.62-5.151,9.04,9.04,0,0,1,2.192-6.487,7.693,7.693,0,0,1,5.629-2.194,11.747,11.747,0,0,1,4.2.668V35.1a7.129,7.129,0,0,1-1.43,4.77M215.39,51.608V.762H202.513V15.833a25.278,25.278,0,0,0-2.48-.573,16.412,16.412,0,0,0-3.242-.285,20.1,20.1,0,0,0-10.112,2.48,18.435,18.435,0,0,0-6.772,6.772,19.355,19.355,0,0,0-2.386,9.729,23.882,23.882,0,0,0,1.528,8.777,15.948,15.948,0,0,0,4.387,6.487,14.133,14.133,0,0,0,4.387,2.48,15.537,15.537,0,0,0,5.247.858,13.359,13.359,0,0,0,5.246-1.145,11.008,11.008,0,0,0,4.578-3.529l.668,3.625H215.39V51.6Zm-43.306-35.87H159.2V51.6h12.877V15.741ZM172.656.762H158.729v10.11h13.926V.766ZM129.54,39.3a8.548,8.548,0,0,1-1.907-5.627,8.734,8.734,0,0,1,1.907-5.629,6.27,6.27,0,0,1,5.151-2.29,6.536,6.536,0,0,1,5.151,2.29,8.548,8.548,0,0,1,1.907,5.627,8.731,8.731,0,0,1-1.907,5.629,6.939,6.939,0,0,1-10.3,0M117.9,43.4a17.373,17.373,0,0,0,6.773,6.868,20.756,20.756,0,0,0,20.032,0,17.749,17.749,0,0,0,6.677-6.868,19.374,19.374,0,0,0,2.386-9.729,19.888,19.888,0,0,0-2.386-9.731,17.768,17.768,0,0,0-6.677-6.868A19.1,19.1,0,0,0,134.691,14.5a19.58,19.58,0,0,0-10.016,2.575A18.722,18.722,0,0,0,117.9,23.94a19.379,19.379,0,0,0-2.384,9.731A19.862,19.862,0,0,0,117.9,43.4m-17.648,8.2V35.488c0-6.2,2.765-9.254,8.394-9.254a16.568,16.568,0,0,1,3.721.477l1.715-10.969a11.059,11.059,0,0,0-1.907-.479,20.762,20.762,0,0,0-2.671-.191A9.341,9.341,0,0,0,104.07,16.6a13.834,13.834,0,0,0-3.814,3.625l-.477-4.484h-12.4V51.608h12.879ZM67.06,39.87a5.191,5.191,0,0,1-4.2,1.718,6.107,6.107,0,0,1-4.77-1.907,8.1,8.1,0,0,1-1.62-5.151,9.04,9.04,0,0,1,2.192-6.487,7.693,7.693,0,0,1,5.629-2.194,11.747,11.747,0,0,1,4.2.668V35.1a7.129,7.129,0,0,1-1.43,4.77M81.367,51.606V.762H68.49V15.833a25.277,25.277,0,0,0-2.48-.573,16.412,16.412,0,0,0-3.242-.285,20.1,20.1,0,0,0-10.112,2.48,18.448,18.448,0,0,0-6.772,6.772A19.374,19.374,0,0,0,43.5,33.956a23.883,23.883,0,0,0,1.528,8.777,15.966,15.966,0,0,0,4.387,6.487A14.153,14.153,0,0,0,53.8,51.7a15.544,15.544,0,0,0,5.247.858,13.359,13.359,0,0,0,5.246-1.145,11.024,11.024,0,0,0,4.58-3.529l.668,3.625H81.367V51.6Z" transform="translate(1.781 2.671)" fill="#ffe000"/>
            <path id="Path_3" data-name="Path 3" d="M16.789,53.134a17.051,17.051,0,0,1-5.438-.86A13.1,13.1,0,0,1,6.868,49.7a16.876,16.876,0,0,1-4.484-6.677,24.984,24.984,0,0,1-1.62-8.967,19.886,19.886,0,0,1,2.479-9.92,18.087,18.087,0,0,1,6.964-6.964,20.507,20.507,0,0,1,10.4-2.577,18.924,18.924,0,0,1,3.337.287c.668.1,1.335.285,1.909.381V.766a.45.45,0,0,1,.477-.477H39.109a.45.45,0,0,1,.477.477V51.7a.451.451,0,0,1-.477.477H27.377A.638.638,0,0,1,26.9,51.8l-.477-2.671a12.239,12.239,0,0,1-4.1,2.861,17.386,17.386,0,0,1-5.532,1.145Zm3.72-37.68a19.9,19.9,0,0,0-9.922,2.479,17.447,17.447,0,0,0-6.581,6.583A19.263,19.263,0,0,0,1.62,33.956a22.909,22.909,0,0,0,1.528,8.586,16.09,16.09,0,0,0,4.291,6.3,14.107,14.107,0,0,0,4.2,2.384,13.324,13.324,0,0,0,10.11-.285,11.725,11.725,0,0,0,4.389-3.34c.094-.191.285-.191.475-.191s.287.191.383.381l.572,3.244H38.442V1.239H26.709v14.6a.5.5,0,0,1-.191.381.569.569,0,0,1-.381.1c-.668-.191-1.432-.383-2.386-.573a17.849,17.849,0,0,0-3.242-.285Zm0,26.613a6.1,6.1,0,0,1-5.057-2.1,8.257,8.257,0,0,1-1.717-5.436c0-2.956.764-5.247,2.29-6.773a8.052,8.052,0,0,1,5.913-2.288,16.2,16.2,0,0,1,4.389.668.521.521,0,0,1,.285.475V35.2a7.619,7.619,0,0,1-1.526,5.057h0A5.675,5.675,0,0,1,20.509,42.067Zm1.526-15.741a7.045,7.045,0,0,0-5.246,2c-1.335,1.335-2,3.433-2,6.1A7.245,7.245,0,0,0,16.312,39.3,5.388,5.388,0,0,0,20.7,41.113a4.775,4.775,0,0,0,3.91-1.526h0A6.687,6.687,0,0,0,25.945,35.2V26.9a13.814,13.814,0,0,0-3.91-.573Z" transform="translate(1.781 2.671)" fill="none" stroke="#ffe000" stroke-width="1.781"/>
          </g>
        </g>
      </g>
    </g>
  </g>
</svg>
